<svg id="Layer_1" data-name="Layer 1" xmlns="http://www.w3.org/2000/svg" width="2767" height="135.29" viewBox="0 0 2767 135.29"><defs><style>.cls-1{fill:#58cc02;fill-rule:evenodd;}</style></defs><title>green_wave_footer_2</title><path class="cls-1" d="M121.71,12.4c-26.36,0-41.37-2.73-56.86-5.51-16.43-3-33.38-6-65-6V135.34h1845V.89c-27.82,0-41.42,2.9-55,5.78s-26.7,5.73-53.77,5.73c-26.36,0-41.36-2.69-56.82-5.47-16.43-3-33.38-6-65-6-27.83,0-41.42,2.9-55,5.78s-26.73,5.65-53.8,5.65c-26.36,0-41.37-2.69-56.83-5.47-16.43-3-33.38-6-65-6-27.82,0-41.42,2.9-55,5.78s-26.73,5.65-53.78,5.65c-26.36,0-41.36-2.69-56.82-5.47-16.43-3-33.38-6-65-6-27.82,0-41.41,2.9-54.94,5.78s-26.81,5.65-53.88,5.65c-26.36,0-41.36-2.73-56.83-5.51-16.43-3-33.38-6-65-6-27.82,0-41.41,2.9-55,5.78s-26.73,5.69-53.8,5.69c-26.36,0-41.36-2.69-56.82-5.47-16.44-3-33.38-6-65-6-27.83,0-41.42,2.9-55,5.78S610,12.4,583,12.4c-26.37,0-41.37-2.69-56.83-5.47-16.43-3-33.38-6-65-6-27.82,0-41.42,2.9-54.95,5.78S379.4,12.4,352.33,12.4C326,12.4,311,9.71,295.51,6.93c-16.43-3-33.38-6-65-6-27.83,0-41.42,2.9-54.95,5.78S148.78,12.4,121.71,12.4Z"/><path class="cls-1" d="M1966.25,12.4c-26.36,0-41.37-2.73-56.86-5.51-16.43-3-33.38-6-65-6V135.34h1845V.89c-27.82,0-41.42,2.9-55,5.78s-26.7,5.73-53.77,5.73c-26.36,0-41.36-2.69-56.82-5.47-16.43-3-33.38-6-65-6-27.83,0-41.42,2.9-55,5.78s-26.73,5.65-53.8,5.65c-26.36,0-41.37-2.69-56.83-5.47-16.43-3-33.38-6-65-6-27.82,0-41.42,2.9-55,5.78s-26.73,5.65-53.78,5.65c-26.36,0-41.36-2.69-56.82-5.47-16.43-3-33.38-6-65-6-27.82,0-41.41,2.9-54.94,5.78s-26.81,5.65-53.88,5.65c-26.36,0-41.36-2.73-56.83-5.51-16.43-3-33.38-6-65-6-27.82,0-41.41,2.9-55,5.78s-26.73,5.69-53.8,5.69c-26.36,0-41.36-2.69-56.82-5.47-16.44-3-33.38-6-65-6-27.83,0-41.42,2.9-55,5.78s-26.74,5.65-53.8,5.65c-26.37,0-41.37-2.69-56.83-5.47-16.43-3-33.38-6-65-6-27.82,0-41.42,2.9-55,5.78s-26.78,5.65-53.85,5.65c-26.36,0-41.36-2.69-56.82-5.47-16.43-3-33.38-6-65-6-27.83,0-41.42,2.9-55,5.78S1993.32,12.4,1966.25,12.4Z"/></svg>